<?xml version="1.0" encoding="UTF-8"?>
<svg xmlns="http://www.w3.org/2000/svg" viewBox="0 0 471.8 257.6">
  <path fill="#c2a15a" d="M432,208c-.2,5,3.7,8.9,7.9,9-4-.1-8.1,3.7-8.5,7.5h-.4c-.1-3.9-3.6-7.4-8-7.5v-.4c4.2-.2,8.6-3.8,9-8.6Z"/>
  <path fill="#1f4d3a" d="M308.3,113c-18.3-1-28.8-9-34.8-8.4-7.4.2-11.6,11.3-7.9,19-10.5-3.5-5.6-31.1-10.8-59.2-1.9-7-2.4-6.1-4.5,2.8,6.1,14.5,2.8,40.3,6.2,55.8,2.4,8.5,9,9,11.5,9l.3,4.5c1.3,0,2.2-5,2.2-5,10.5-1,21.7-12,34.4-12l3.2-6.4.2-.1h0ZM270.3,124.3c-.4-3.5-3-7.8-3-9,4.5-7.7,15.6-.8,23.6,1.3-7.3,4-14.1,6.7-20.6,7.7Z"/>
  <path fill="#1f4d3a" d="M239.8,95.7c-7,1-11.7,15.8-3.6,17.8,4.4,1.1,8.3-1.5,11.1,3.3-4.8,4.1-16.7,7.7-26.9,8.8,6.9-2.5,10.1-11.7,7.6-16.2-7.5-10.8-16-3.5-23,4.2,3.4-8.1.5-19.2-.5-29.7l2.5,2.1.6-2-6.6-14.4c-1.4,2-3.4,7.6-3.1,7.3,3.1,6.9,4.2,29.1,4.2,29.1l-.5,10c-2.2,2.8-5.2,7.4-6.7,10.1-11.6.8-18.7-4.7-20-13l-2.7-16-8.4-.1c.3,34,26.3,77.2,73.8,77.2s65.3-32.8,69.9-49.8c-8.4,14.6-28.4,31.9-58.5,32-18.8,0-33.5-6.5-47.1-19.3-13,0-19.3-4.1-23.5-13.1,5.5,7.9,14.6,9.9,22,9.5,30.2-.4,49-3.4,50-17,1.3-10-4.5-20.8-10.6-20.8h0ZM198.4,126.2c4.6-6.8,12.6-15.7,18.6-15.7,3-.2,7.6,4.4,7.4,6.3-10.3,6.2-17.4,8.8-26,9.4Z"/>
  <path fill="#1f4d3a" d="M174.9,113c-2.8-12.4-5-32.4,10.7-55.4,9.3-13.1,28.3-29.8,50.7-30.5-18.2-.7-37.3,7.5-50.7,21.5-12,12.4-21.2,28.3-21.6,51"/>
  <path fill="#c2a15a" d="M190.4,122c-2.3-4.6-7.3-15.6-7.1-30,.8-38.5,30.8-59.6,53-64.9-24.7,1.8-63.7,23.5-62.2,73.9.3,14.8,6.9,21,16.3,21Z"/>
  <path fill="#c2a15a" d="M234,86l3.5-5.9s6.5,3.5,6,5c-.5,1-2.5,5.4-3,5.9s-6.5-5-6.5-5Z"/>
  <path fill="#c2a15a" d="M211.9,94.1l3.5-6s6.5,3.5,6,5c-.5,1-2.5,5.4-3,5.4s-6.5-4.4-6.5-4.4Z"/>
  <path fill="#c2a15a" d="M236.5,104.6c-.2,2.8,6.5,2,6.5,2,0,0-3.1-6-6.5-2Z"/>
</svg>
