<svg xmlns="http://www.w3.org/2000/svg" viewBox="0 0 165.8 129.7">
<!-- SVG created with Arrow, by QuiverAI (https://quiver.ai) -->
  <style type="text/css">.cls-0 {fill:#E4F1EA;}
.cls-1 {fill:#0B5C3A;}
.cls-2 {fill:#104433;}
.cls-3 {fill:#DFD2BE;}
.cls-4 {fill:#FAF2E5;}
.cls-5 {fill:#BC9E56;}
.cls-6 {fill:#202223;}
.cls-7 {fill:#262626;}
.cls-8 {fill:none;stroke:#0B5C3A;stroke-width:1.3504;stroke-linecap:round;stroke-miterlimit:10;}
.cls-9 {fill:none;stroke:#0B5C3A;stroke-width:1.3455;stroke-linecap:round;stroke-linejoin:bevel;stroke-miterlimit:10;}
.cls-10 {fill:none;stroke:#0B5C3A;stroke-width:0.7704;stroke-linecap:round;stroke-linejoin:round;stroke-miterlimit:10;}</style>
  <path class="cls-1" d="m146.6 119.1c0.1 0.1 0 0 0 0z"/>
  <path class="cls-1" d="m132.7 66.5c-0.2-0.7-1-1.3-1.9-1.4l-1.8-0.2h-104l-2 0.2c-0.8 0.1-1.5 0.7-1.7 1.4l-13.5 51.1c-0.3 1.4 0.5 2.4 1.9 2.4l58.3-1.9c1.9-0.1 2 0.3 2.7 0.8 1.4 1.8 3.4 2.9 6.8 2.9 3.5 0 5.9-0.9 7.5-2.7 1-1.1 1-1.3 3-1.2l56.6 2.1c1.4 0 2.3-0.8 1.9-2.4l-13.8-51.1z"/>
  <path class="cls-2" d="m146.3 118.7c-0.1 0.8-0.7 1.2-1.7 1.3l-56.9-2.7c-2.3 0-2.8 0.7-3.3 1.3-1.3 1.8-4.6 3-8.5 2.9s-5.4-1.7-6.7-3.1c-0.6-0.6-1-0.6-3.8-0.5l-56.1 1c-0.8 0-1.4-0.3-1.6-0.8l0.2-0.7c0.5 1 1.2 1.2 2.5 1.1l56.2-1.9c1.8 0 2.7 0.1 3.4 0.7l1 0.9c2.4 2 5.9 2.6 8.8 2 4.5-0.9 4.1-2.4 5.5-3.2 0.9-0.6 2.4-0.5 3.6-0.4l56 1.9 1.4 0.2z"/>
  <path class="cls-3" d="m25.2 64.9-11.9 49.9 63.7-0.6 63.6 0.6-11.8-49.9-4.8-6.9-94 0.2z"/>
  <path class="cls-4" d="m29.8 58.1-10.4 48.9c17.2 0.6 28.1-3.6 36.9-3.6 12.1 0 19 5.7 20.6 8.4l-0.2-49.1c-1.4-2.7-7.7-8-16.4-7.9-9.4 0-14.3 3.1-27.3 3.5l-3.2-0.2z"/>
  <path class="cls-4" d="m76.9 62.6v49.2c1.6-2.7 8.7-8.4 20.4-8.4 8.8 0 19.7 4.2 37.1 3.5l-10.4-48.9c-12.9 0.9-19.9-3.2-30-3.2-8.7 0-15.2 4.6-17.1 7.8z"/>
  <path class="cls-3" d="m76.9 111.8c1.3-1.2 7.6-8.4 20.4-8.4 8.8 0 19.2 3.5 37 3.6l5.9 7.3-14.2 0.1c-11.9-0.5-20.1-3.2-29.3-3.2-4.6 0-10.5 1.3-14.2 3.8l-5.6-1v-2.2z"/>
  <path class="cls-3" d="m76.9 111.8c-1.6-2.4-9.1-8.4-20.1-8.4s-16.8 3.6-31.4 3.6l-12 7.8 10-0.1c11.5-0.2 20.3-3.5 32.6-3.5 4.6 0 10.5 0.5 15.5 3.8l5.4-0.6v-2.6z"/>
  <path class="cls-6" d="m71.5 115.3c1.2-2.3 3.3-3.5 5.4-3.5s4.3 0.9 5.6 3.2c-4.2 2.7-8.5 2.1-11 0.3z"/>
  <path class="cls-6" d="m71.5 115.3c-7.9-2.6-23-1.3-48.3-0.6 12.1-0.4 21.2-3.2 30.9-3.5 6.9-0.2 13.1 0.6 17.4 3.8v0.3z"/>
  <path class="cls-6" d="m82.5 115.3c3.5-2.4 9.6-4.2 15.4-4.1 7.4 0 13.6 1.7 28.2 3.2-15.3-0.2-36-1.6-41.2 0l-2.4 0.9z"/>
  <path class="cls-7" d="m31.2 107.8c9.3-0.6 19.2-3.3 27.8-2.4 3.7 0.3 8.6 1.4 12.4 4v0.1c-10.1-5.6-20.2-3.8-28.1-2.9-4.2 0.5-7.9 1.1-12.1 1.3v-0.1z"/>
  <path class="cls-7" d="m82.4 109.5c3.8-2.5 8.5-4 13.9-4.2 7.1-0.3 15.2 1.4 26.2 2.5v0.1c-13.1-0.8-19.7-3.1-28-1.9-3.7 0.6-9.2 1.9-12.1 3.8v-0.3z"/>
  <path class="cls-7" d="m34.5 64.2c8-0.1 9.5-1 14.6-1.9 4-0.7 8.5-1.1 12.3-0.6 3.2 0.5 6.4 1.3 9.2 3.4v0.1c-9.7-5.1-18.6-3.1-24-2.2-5.7 1.1-8 1.3-12.1 1.3v-0.1z"/>
  <path class="cls-7" d="m33.5 68.6c8 0.1 14.9-2.4 22.5-2.5 4.9-0.1 10 0.7 14.6 3.6l-0.1 0.1c-5.9-3.1-11.9-3.9-20.1-2.9-5.8 0.8-11.5 2.1-16.9 1.8v-0.1z"/>
  <path class="cls-7" d="m32.8 73.1c7.2 0.1 12.8-1.6 19.1-2.1 6-0.4 12.2-0.5 18.7 3.4v0.1c-7.8-3.9-15.1-3.9-22.4-2.8-5 0.8-9.8 1.6-15.4 1.6v-0.2z"/>
  <path class="cls-7" d="m31.7 77.5c9 0.1 13.8-1.6 20.9-1.8 5.8-0.3 11.2 0.1 17.9 3.5v0.1c-7.7-3.6-15.7-3.7-21.9-2.8-6.2 0.8-10.7 1.4-16.9 1.2v-0.2z"/>
  <path class="cls-7" d="m30.7 82.7c8.7 0.2 14.7-1.7 22.2-2 4.8-0.1 10.6-0.1 17.5 3.5v0.1c-6.4-2.9-12-3.7-19.8-3.1-6.6 0.6-12 1.8-19.9 1.7v-0.2z"/>
  <path class="cls-7" d="m29.5 88.5c7.9 0.4 15-2 23.1-2.3 5.3-0.1 11.4 0.2 17.8 3.7v0.2c-7.5-3.5-13.9-4.1-22-3.2-6.5 0.7-11.5 2.1-18.9 1.8v-0.2z"/>
  <path class="cls-7" d="m28.5 95.3c8.9 0.4 14.1-1.5 22.4-2.4 5.6-0.4 12.5-0.4 19.5 3.7v0.4c-7.5-3.9-14.5-4.6-24.8-3.2-5.5 0.9-10.4 1.8-17.1 1.6v-0.1z"/>
  <path class="cls-7" d="m82.9 65.2c3.1-1.8 7.7-3.7 14.2-3.7 8 0.1 12 2.4 21.8 2.6v0.1c-12 0.1-15.3-2.7-23.9-2.4-4.4 0.2-8.5 1.2-12.1 3.4z"/>
  <path class="cls-7" d="m83.1 69.7c4.3-2.3 9.3-3.8 15.9-3.5 5.6 0.3 11.5 2.1 20.8 2.4v0.1c-8.4 0.1-13.8-1.8-21.3-2.2-5.1 0-10.4 0.4-15.4 3.3v-0.1z"/>
  <path class="cls-7" d="m83 74.5c4.7-2.5 9.4-3.9 15.7-3.7s13.3 2.3 22 2.3v0.1c-9 0.2-14.6-1.8-22.1-2.1-6.2-0.1-11 1.1-15.6 3.4z"/>
  <path class="cls-7" d="m83.4 79.2c4.5-2.3 8.7-3.6 14.7-3.6 5.9 0.1 12.9 2 23.6 1.9v0.1c-10.2 0.4-15.3-1.5-23.8-1.7-4.5 0-9.8 0.7-14.5 3.4v-0.1z"/>
  <path class="cls-7" d="m83.4 84.3c4.1-2.1 8.6-3.7 15.1-3.6 6.6 0.1 12 1.9 24.4 2v0.2c-10.2 0.2-15.9-1.7-24-1.9-5.4 0-10.8 0.6-15.5 3.3z"/>
  <path class="cls-7" d="m83.4 90c4.5-2.3 8.8-3.8 15-3.8s11.5 1.5 25.5 2.3v0.1c-9.3 0.6-14.5-1.6-24.3-2-5.3-0.1-10.6 0.4-16.2 3.3v0.1z"/>
  <path class="cls-7" d="m83.4 96.7c4.7-2.4 9.3-4.1 16.6-3.9 7.2 0.2 13.4 2.6 25.2 2.5v0.1c-10.7 0.3-15-1.7-25.5-2.2-5.3-0.1-11.3 0.5-16.3 3.3v0.2z"/>
  <path class="cls-7" d="m76.7 62.6c0.3 1.8 0.5 47.2 0.3 49.2-0.4-2.7-0.6-46.9-0.3-49.2z"/>
  <path class="cls-5" d="m77.7 7.9c-5.8 1.6-12.4 7.5-12.4 17.2 0.2 8.8 6.7 16.6 16.8 16.7 5.5 0 10.9-2.3 14.6-7.9-1.1 5-5.7 15-19.7 15-10.4 0-19.8-8.3-19.8-20.7 0-11 10.2-20.5 20.5-20.3z"/>
  <path class="cls-8" d="m129.5 32.2c4.1 0.9 8.6 2.6 13 5.9 6.5 4.9 14.8 14.4 14.8 29.3 0 7.6-2.4 15.3-7.7 21.6"/>
  <path class="cls-9" d="m125.8 42.7c10.2 1.7 20.7 10.7 20.7 24.1 0 4.6-1.5 9.4-4 13.2"/>
  <path class="cls-10" d="m123.3 50.4c7.1 0.6 14.9 6.3 14.9 16.2 0 2.3-0.6 5.4-1.9 7.4"/>
</svg>