<svg xmlns="http://www.w3.org/2000/svg" viewBox="0 0 150 150">
  <style>
    @media (prefers-reduced-motion: reduce) {
      .hafiz-motion { animation: none !important; }
    }
  </style>
  <g class="hafiz-motion">
    <animateTransform attributeName="transform" type="translate" values="0 1.4; 0 -1.4; 0 1.4" dur="5s" repeatCount="indefinite"/>
    
<!-- SVG created with Arrow, by QuiverAI (https://quiver.ai) -->
  <style type="text/css">.cls-0 {fill:#145938;stroke:#111C2A;stroke-width:0.75;stroke-miterlimit:10;}
.cls-1 {fill:#111C2A;}
.cls-2 {fill:#F6F2E9;}
.cls-3 {fill:none;stroke:#111C2A;stroke-linecap:round;stroke-miterlimit:10;}
.cls-4 {fill:#131B28;}
.cls-5 {fill:#E5F4EB;}
.cls-6 {fill:none;stroke:#111C2A;stroke-width:1.5;stroke-linejoin:round;stroke-miterlimit:10;}
.cls-7 {fill:none;stroke:#111C2A;stroke-width:1.5;stroke-linecap:round;stroke-miterlimit:10;}
.cls-8 {fill:#C8A856;}
.cls-9 {fill:none;stroke:#111C2A;stroke-width:0.75;stroke-linecap:round;stroke-miterlimit:10;}
.cls-10 {fill:none;}</style>
  <path class="cls-0" d="m119.9 11.4h-90c-3.3 0-6.3 2.6-6.3 6v117c0 3.3 2.6 5.8 6.2 5.8l90.2-0.1c3.3 0 6.3-2.3 6.3-5.7v-117c0-3.4-2.7-6-6.4-6z"/>
  <polygon class="cls-1" points="32.1 20.1 120.3 20.1 120.2 133.7 32.1 133.7"/>
  <rect class="cls-2" x="30.6" y="18.7" width="88" height="113.7"/>
  <path class="cls-6" d="m97.7 12.7h-45.8c-1.6 0-2.8 1.3-2.8 2.8v6.2c0 1.6 1.3 3.3 3.1 3.3h45.8c1.8 0 3-1.3 3-3.3v-6.2c0-1.7-1.2-2.8-3.3-2.8z"/>
  <path class="cls-4" d="m96.4 9.5h-42.8c-0.7 0-1.8 0.6-1.8 1.6v3.2c0 0.9 0.8 1.5 1.8 1.5h42.8c1.1 0 1.6-0.7 1.6-1.5v-3.4c0-0.6-0.7-1.4-1.6-1.4z"/>
  <path class="cls-5" d="m88.6 49.6h-47.3c-1.4 0-2.8-0.8-2.8-2.8v-6.8c0-1.3 1.1-2.5 2.7-2.5h47.4c1.8 0 2.6 1.1 2.6 2.6v6.7c0 1.8-1.3 2.8-2.6 2.8z"/>
  <line class="cls-7" x1="42.9" x2="49.7" y1="45.1" y2="45.1"/>
  <line class="cls-9" x1="55.8" x2="69.2" y1="45.3" y2="45.3"/>
  <path class="cls-5" d="m88.6 68.2h-47.3c-1.4 0-2.8-0.8-2.8-2.8v-6.8c0-1.5 1.1-2.9 2.8-2.9h47.2c1.6 0 2.7 1.1 2.7 2.7v6.9c0 1.9-1.3 2.9-2.6 2.9z"/>
  <path class="cls-5" d="m70.8 86.1h-29.5c-1.4 0-2.8-0.8-2.8-2.6v-7c0-1.7 1.3-2.7 2.7-2.7h29.5c1.5 0 2.7 1.1 2.7 2.6v7c0 1.8-1.2 2.7-2.6 2.7z"/>
  <path class="cls-5" d="m53.3 104.1h-12.1c-1.4 0-2.7-0.9-2.7-2.7v-7.5c0-1.3 1-2.4 2.2-2.4h12.8c1.6 0 2.5 0.9 2.5 2.2v7.7c0 1.7-1.3 2.7-2.7 2.7z"/>
  <line class="cls-7" x1="42.9" x2="49.7" y1="63.9" y2="63.9"/>
  <line class="cls-9" x1="55.8" x2="69.1" y1="64.1" y2="64.1"/>
  <line class="cls-7" x1="42.9" x2="49.7" y1="81.8" y2="81.8"/>
  <line class="cls-9" x1="55.7" x2="69.1" y1="82" y2="82"/>
  <line class="cls-7" x1="42.8" x2="49.7" y1="99.5" y2="99.5"/>
  <path class="cls-8" d="m93.5 43.7 4.1-2.3 2.3 3.6s3.9-7.6 5-8.8l3.3-2.3s-1.3 3.7-0.2 6.3c-3 1.7-7.4 9.8-7.5 9.7-0.2-0.3-3.7-5-7-6.2z"/>
  <path class="cls-8" d="m93.4 62.3 4.2-2.6 2.4 4.1s4.1-8.4 4.9-9.8l3.3-2.5s-1.3 3.5-0.2 7c-2.6 1.2-7.4 9.8-7.5 9.7-1.1-0.8-3.8-4.7-7.1-5.9z"/>
  <path class="cls-8" d="m75.7 81.3 3.7-2.6 2.5 4.1s3.7-7.4 5.2-9.4l3.3-2.3s-1.4 3.8-0.3 6.5c-2.5 0.9-7.5 9.7-7.6 9.6-0.9-0.8-4.2-4.9-6.8-5.9z"/>
  <path class="cls-8" d="m58.3 98.6 4.1-2.7 2.4 4.2s4.3-8.8 5.2-9.7l3-2.1s-1.1 3.7-0.2 6.2c-2.9 0.9-7.3 10.1-7.4 10.1-0.9-0.8-4-5.1-7.1-6z"/>
  <g transform="translate(0 123.8)">
  <g>
    <animateTransform attributeName="transform" type="scale" values="1 0.2; 1 1; 1 0.2" dur="3.8s" repeatCount="indefinite"/>
    <rect class="cls-8" x="41.2" y="-7.5" width="14.5" height="7.5"/>
  </g>
</g>
  <g transform="translate(0 123.7)">
  <g>
    <animateTransform attributeName="transform" type="scale" values="1 0.2; 1 1; 1 0.2" dur="3.8s" repeatCount="indefinite"/>
    <rect class="cls-8" x="59.1" y="-16" width="14.1" height="16"/>
  </g>
</g>
  <g transform="translate(0 124.10000000000001)">
  <g>
    <animateTransform attributeName="transform" type="scale" values="1 0.2; 1 1; 1 0.2" dur="3.8s" repeatCount="indefinite"/>
    <rect class="cls-8" x="76.5" y="-32.2" width="14" height="32.2"/>
  </g>
</g>
  <g transform="translate(0 123.8)">
  <g>
    <animateTransform attributeName="transform" type="scale" values="1 0.2; 1 1; 1 0.2" dur="3.8s" repeatCount="indefinite"/>
    <rect class="cls-8" x="94.1" y="-52.3" width="14" height="52.3"/>
  </g>
</g>
  <line class="cls-3" x1="39" x2="110.9" y1="123.9" y2="123.9"/>

  </g>
</svg>
