<svg xmlns="http://www.w3.org/2000/svg" viewBox="0 0 160 160" role="img" aria-hidden="true">
  <polygon points="48,8 112,8 152,48 152,112 112,152 48,152 8,112 8,48" fill="#032C27" stroke="#AF8644" stroke-width="3"/>
  <g fill="none" stroke="#FBF9F2" stroke-width="2.6" stroke-linecap="round" stroke-linejoin="round">
    <path d="M52 108V78c0-2 1-4 3-5l22-14c2-1 4-1 6 0l22 14c2 1 3 3 3 5v30"/>
    <path d="M48 108h64"/>
    <path d="M72 108V92h16v16"/>
    <path d="M80 44v10"/>
    <circle cx="80" cy="40" r="2.8" fill="#AF8644" stroke="none"/>
    <path d="M62 70c4-8 10-12 18-12s14 4 18 12"/>
  </g>
</svg>
