<svg xmlns="http://www.w3.org/2000/svg" viewBox="0 0 176.8 90.8">
  <style>
    @media (prefers-reduced-motion: reduce) {
      .hafiz-motion { animation: none !important; }
    }
  </style>
  <g class="hafiz-motion">
    <animateTransform attributeName="transform" type="translate" values="0 1.4; 0 -1.4; 0 1.4" dur="5s" repeatCount="indefinite"/>
    
<!-- SVG created with Arrow, by QuiverAI (https://quiver.ai) -->
  <style type="text/css">.cls-0 {fill:#FFF8EE;}
.cls-1 {fill:#BE9C4D;}
.cls-2 {fill:none;stroke:#055E3A;stroke-width:4.4619;stroke-linecap:round;stroke-miterlimit:10;}
.cls-3 {fill:#FCF7ED;}
.cls-4 {fill:#E4F2EA;}
.cls-5 {fill:#055E3A;}
.cls-6 {fill:#C0DAD0;}
.cls-7 {fill:#378B50;}
.cls-8 {fill:none;stroke:#055E3A;stroke-width:3.3004;stroke-linejoin:round;stroke-miterlimit:10;}
.cls-9 {fill:#DEF0E7;}
.cls-10 {fill:none;stroke:#055E3A;stroke-width:3.2554;stroke-miterlimit:10;}
.cls-11 {fill:#091728;}
.cls-12 {fill:#CFAB59;}
.cls-13 {fill:#12623E;}
.cls-14 {fill:none;stroke:#0D1729;stroke-width:1.8198;stroke-linecap:round;stroke-linejoin:round;}</style>
  <path class="cls-1" opacity="0.85" d="m60.5 82.5c-16.8-0.5-25.1-9.6-29.4-15.5l3.5-2c4.2 5.6 11.6 12.8 26 13.2 14.1 0.5 23.3-11.6 23.4-12.2l3-0.6h2.7l-1.8 2.6c-0.4 0.6-9.6 14.5-27.4 14.5z"><animate attributeName="opacity" values="0.55;1;0.55" dur="3.2s" repeatCount="indefinite"/></path>
  <path class="cls-1" opacity="0.85" d="m60.5 57.9c-3.5 0-7.5-2.5-7.6-7.9h3.1c-0.1 1.5 2.1 4.6 4.8 4.6 2.8 0 4.9-2 5.5-4.8l3.5 1.2c-1.5 4.8-4.9 6.9-9.3 6.9z"><animate attributeName="opacity" values="0.55;1;0.55" dur="3.2s" repeatCount="indefinite"/></path>
  <path class="cls-1" opacity="0.85" d="m122.9 41.4-2.3-2.4c-0.7-1.4-2.7-2.6-4.6-2.6-1.6 0-3.7 1-4.7 4.3l-4.1-1.7c1.4-4.5 5.1-5.2 8.1-5.2 3.9 0 7 2.2 8 4.1v3.5z"><animate attributeName="opacity" values="0.55;1;0.55" dur="3.2s" repeatCount="indefinite"/></path>
  <path class="cls-1" opacity="0.85" d="m95.5 23.5-3.4-1.5c2.3-2.8 10.2-9.7 23.2-9.7 8.7-0.1 18.6 3.7 22.3 9.3l-3.2 2.4c-2.2-4.1-10-9.3-19.1-9.3s-16.6 4.5-19.8 8.8z"><animate attributeName="opacity" values="0.55;1;0.55" dur="3.2s" repeatCount="indefinite"/></path>
  <path class="cls-2" d="m140.4 20.6c-4.4-4.6-11.8-10.3-24.7-10.5-11.6 0-20.4 5.3-25.7 11.5l-1.5 1.8"/>
  <path class="cls-2" d="m36.9 66.9c5.2 5.1 12.6 10.5 24.1 10.7 9.6 0 16.9-3.7 21.4-8l2.2-2.1"/>
  <path class="cls-2" d="m107.1 36.4c1.5-2.4 4.6-4.6 8.4-4.6 3.1 0 5.4 1.3 7.5 3.3"/>
  <path class="cls-2" d="m53 53c1.4 2.8 4 4.9 7.7 5.2 3.3 0.1 6.3-1.7 7.7-4.6"/>
  <path class="cls-3" d="m9.9 47c0-11.1 9.5-21.6 22-21.8 12.2-0.2 22 9.8 22.4 21.2 0.4 11-7.9 22-22.3 22.1-14.5 0.1-22.1-10.1-22.1-21.5z"/>
  <path class="cls-4" d="m10.6 47.3c0-11.3 8.8-21.8 21.4-21.9 11.1-0.2 21.5 8.8 22 20.6 0.4 11.1-7.6 22.3-20.7 22.4-13.9 0.5-22.7-9.4-22.7-21.1z"/>
  <path class="cls-5" d="m32 23.7c-12.3 0-23.5 10.3-23.5 23.3-0.4 10.9 7.9 22.9 23.1 23.4 13.7 0.2 24-10.5 24.1-22.8 0.2-12.2-10-24-23.7-23.9zm0 43.2c-11.3 0-20.5-9-20.5-19.5-0.3-9.4 7.5-20.5 20.4-20.5 10.1 0 20.7 8.2 20.5 20.2 0 9.8-7.7 19.9-20.4 19.8z"/>
  <path class="cls-4" d="m66.6 45.5c0-11.1 9.5-21.8 21.9-22.1 11.4-0.4 21.4 9.6 21.5 21.7 0 12.3-8.9 21.5-21.1 22-12.5 0.5-22.3-9.7-22.3-21.6z"/>
  <path class="cls-6" d="m88.5 66.6c-10.9 0-22.5-8.6-21.9-21.5 0.6-11.1 10-21.9 21.8-21.6 10.7 0.1 20.5 9.4 21.2 20.5 0.5 10.4-7.2 22.6-21.1 22.6z"/>
  <path class="cls-4" d="m122.1 41.6c0.4-10.5 9.4-22.5 22.6-22 9.9-0.2 21.8 8.4 21.9 21.9 0.3 10.2-7.6 22.4-21.6 22.5-13.4 0-23.3-10-22.9-22.4z"/>
  <path class="cls-5" d="m88 21.7c-11 0-22.4 8.9-22.9 22.8-0.5 12.9 10 24.1 23.3 24.1 14.7 0 23.1-12.1 23-23.2 0-11.4-9.7-23.8-23.4-23.7zm0.4 43.9c-11.5 0-20.3-10.1-20.3-20.1s8.4-20.5 20.3-20.5c10.5 0 20 9.1 20 20.4 0 9.2-7 20.2-20 20.2z"/>
  <path class="cls-5" d="m144.6 18.1c-13.1 0-24 10.8-23.9 23.8 0.2 11.5 8.3 23.6 23.7 23.6 14.5 0 24-11.5 23.9-23.5 0.1-11.3-9.3-23.8-23.7-23.9zm-0.2 44.4c-11.8 0-20.7-9.4-20.5-20.6 0-9 7.8-20.5 20.5-20.5 11.2-0.2 21 9.6 21 20.6 0 9.9-7.5 20.5-21 20.5z"/>
  <path class="cls-7" d="m23.7 53.9c-0.3-2.5 1.2-5.3 3.5-7l5.8-4 5.1 2.2c2.4 1.3 4.9 3.9 4.9 7.9v1.4l-19.3-0.5z"/>
  <polygon class="cls-7" points="23.7 57.5 23.7 66.6 28.9 68 34.7 68.6 43 65.9 43 57"/>
  <path class="cls-8" d="m21.2 53.6v-2.1c0.4-2.5 2.3-4.9 4.2-6l6.5-4 6.8 3.6c2.3 1.3 4.4 3.8 4.3 6.8v1.9"/>
  <path class="cls-5" d="m36 36.4c-0.6 0.5-1.4 0.7-2.3 0.6-1.7-0.1-3.3-2-3.1-3.4 0.1-0.6 0.4-1.1 0.9-1.7-1.1 0.2-2.5 1.5-2.4 3-0.1 2.1 1.9 4 4 3.7 1.4-0.1 2.6-1 2.9-2.2z"/>
  <line class="cls-8" x1="32" x2="31.9" y1="37.9" y2="41.2"/>
  <path class="cls-8" d="m28.9 68 0.1-4c0.1-2 2.9-3.4 3-3.4s2.9 1 3.1 3.1v4.3"/>
  <rect class="cls-9" x="18.7" y="53.6" width="26.6" height="3.6"/>
  <path class="cls-5" d="m45.1 52.7h-1.2v-0.1h-23.5l-1.7 0.3c-0.7 0-0.8 0.5-0.8 0.7v4c0.1 0.3 0.5 0.4 1 0.4h1.2v6.4l1.9 1.1v-7.5h20.4l0.1 7 1.4-1v-6h1.2c0.5 0 0.9-0.1 0.9-0.6v-3.8c0-0.5-0.4-1-0.9-0.9zm-0.7 3.7h-24.8l-0.1-1.9h24.9v1.9z"/>
  <path class="cls-4" d="m29.6 67.1v-3.2c0.4-1 1.4-2.2 2.4-2.4 1 0.4 2 1.1 2.1 2.5v3.4l-4.5-0.3z"/>
  <path class="cls-7" d="m83.5 45.5-1.9 3.9 6 1.6 8.3-3-1.4-3.6-4.4-1.8-3.1 0.3z"/>
  <path class="cls-4" d="m89.1 31.5c-2.2 0.1-5.2 1.5-5.1 4.6 0 2.3 1.9 4.8 4.4 4.8-1.8-1-3.3-6.9 0.7-9.4z"/>
  <path class="cls-7" d="m89 31.6c-3.1 0.9-4.6 6.8-0.6 9 6.2-1 4.7-9 0.6-9z"/>
  <path class="cls-5" d="m81.5 58-0.9 6.4 7 1.6 8.3-1.4-0.8-6.6-6.6 1.6z"/>
  <path class="cls-5" d="m76.4 46.4 1.2 5.2-1.5 0.3 0.3 2.5 2 2s9.6 3 10 3l-0.2-8.8-11.8-4.2z"/>
  <path class="cls-5" d="m99 46.1-10.5 4v9.8l9.5-3.5 2.1-2.4v-2.4l-1.4-0.2z"/>
  <path class="cls-10" d="m80.1 47.5 1.3-3.1 4.6-2c1-0.5 3.6-1 5.1 0l3.5 1.6c0.9 0.1 1.4 3 2 3.6"/>
  <path class="cls-11" d="m88.1 40.4c-2.2 0-3.7-2-3.7-4.4s1.7-4 3.7-4c2.3 0 3.6 1.6 3.6 4.1 0 1.9-1.7 4.3-3.6 4.3zm0.3-10.2c-2.8 0-5.7 2-5.7 5.7 0 3.2 2.3 6 5.7 6.1 3 0 5-2.9 5-6 0-3-2-5.8-5-5.8z"/>
  <path class="cls-7" d="m86.6 44 1.5 3.5 2-3.5-1.6 1z"/>
  <path class="cls-12" d="m76 51.7 1.4 3.7 2.6 0.2 0.6-2.1-1.2-1.6z"/>
  <path class="cls-12" d="m100 51.6-0.4 3.4-2.7 0.5-1.2-1.9 1-1.7z"/>
  <path class="cls-11" d="m99.6 50.7 1.3-4.3c0.2-0.8-0.5-1.4-1.3-1l-3 1.1-0.7 1.4 3-0.4-0.9 3.5-1.4 0.1c-2.6 0.9-2.7 3.8-1 4.8l-6.6 2.7v-7.5l7-3-0.4-1.1-7.5 2.9-7-2.8-1.5-0.5-3.1-1.4c-0.8-0.2-1.4 0.3-1.1 1.3l1.1 4.3c-1.1 0.2-1.5 1.1-1.1 2.8 0.1 1.3 1.5 2 1.7 2.3l0.3 0.7 3 1.3-0.5 6 1.5 0.5 0.5-5.9 6.2 2.2s0.4 0.2 0.9 0l5.5-2.1 0.6 5.8 1.4-0.5-0.5-6.3 2.5-0.7c0.6-0.3 0.6-1 0.6-1 1-0.5 2-1.4 2-3.3 0.1-0.7-0.1-1.7-1.2-1.9zm-22.7 2.8-0.2-1.1 2.2 0.2c1.6 0.4 1.8 2.9-0.3 2.3-0.9-0.3-1.7-1-1.7-1.4zm10.5 5.3-7-2.8c1.8-1 2-4.4-1.7-5.3l-1.2-3.3 9.9 3.8v7.6zm12-4.9c-1.3 1.6-3.9 0.7-2.8-1l2.8-0.4v1.4z"/>
  <path class="cls-13" d="m137.6 46.6 1.4-3.2 5.1-2.4 6.5 2.5 1.4 3.1-7.8 4.4z"/>
  <polyline class="cls-13" points="137.2 60.9 138 51.6 144.4 54.1 151.1 51 152.1 61"/>
  <path class="cls-5" d="m144.5 30.5c-2-0.3-5 1.5-4.9 4.5 0.1 3.5 1.9 5.9 4.4 5.6 2.6-0.1 5.5-2.7 5.5-5.6 0.1-3-2.9-4.8-5-4.5z"/>
  <polygon class="cls-4" points="133 47.9 133.6 45.5 143.5 49.6 144.5 54"/>
  <polygon class="cls-4" points="144.5 50.6 155.9 45.5 157.9 47.9 144.5 54"/>
  <path class="cls-11" d="m158.6 46.6c-0.6-0.1-1.1 0.4-0.6 0.4l-1.1-2c-0.5-0.6-0.9-0.9-1.9-0.4l-2.1 1-0.9-2.2c-0.1-0.4-0.5-0.8-1.1-0.9l-3.5-1.4c2-1 3.2-3.5 3.1-5.7-0.1-3.9-3-6.4-6.1-6.3-3 0.3-5.8 2.5-5.7 6.4 0 2.4 1.4 4.4 2.9 5.5l-3 1.5c-0.5 0.1-1 0.5-1 1l-0.7 2.4-2.8-1.4c-0.5-0.4-1.1 0-1.2 0.4l-1.5 2.1-0.8-0.4c-1 0-1.7 1.4-0.6 1.8l7.5 3.3-0.3 2.4-3.6 1.8c-0.6 0.5-0.4 2 0.8 1.6l2.7-1.4-0.6 4.5 1.6 0.5 0.6-6 3.3-1.2 2 1c0.4 0.1 0.5 0.1 1.1 0l2-1 3.4 1.2 0.6 6.3 1.9-0.8-0.5-4.5 2.6 1.4c1.3 0.4 1.8-1.1 0.8-1.6l-3.7-1.8v-2.4l7.3-3.7c0.5-0.1 0.4-1.6-0.9-1.4zm-18.2-11.2c0-2.5 2-4.5 4.1-4.5 2.2 0 4.2 1.5 4.2 4.6 0 2.1-1.6 4.5-4.2 4.9-2-0.2-4.1-2-4.1-5zm-7 12.2 0.5-1.5 9.7 4.8v2.1l-10.6-5.4h0.4zm10.7 1.8-6-3 0.8-2c0.5-0.9 4.6-2.4 5.2-2.4 1 0 5.6 1.6 6 2.4l0.9 2.1-6.9 2.9zm1 3.7v-2.2l10.5-4.8 1 1.5-11 5.4-0.5 0.1zm-6.2 0.4 0.1-1 1.1 0.5-1.2 0.5zm10.2-0.8 1-0.1v1l-1-0.6v-0.3z"/>
  <polyline class="cls-14" points="131.5 47.5 144.5 54 159 47.4"/>

  </g>
</svg>
